HIERARCHY
ROOT Hips
{
  OFFSET 5.80788e-005 67.184 3.4734
  CHANNELS 6 Xposition Yposition Zposition Zrotation Xrotation Yrotation
  JOINT Chest
  {
    OFFSET 0 8.7983 -4.7612
    CHANNELS 6 Xposition Yposition Zposition Zrotation Xrotation Yrotation
    JOINT Chest2
    {
      OFFSET 0 8.0291 0.4195
      CHANNELS 6 Xposition Yposition Zposition Zrotation Xrotation Yrotation
      JOINT Chest3
      {
        OFFSET 0 9.9351 -2.2114
        CHANNELS 6 Xposition Yposition Zposition Zrotation Xrotation Yrotation
        JOINT Neck
        {
          OFFSET 0 22.3885 -0.4656
          CHANNELS 6 Xposition Yposition Zposition Zrotation Xrotation Yrotation
          JOINT Head
          {
            OFFSET -0.0001 12.643 3.4389
            CHANNELS 6 Xposition Yposition Zposition Zrotation Xrotation Yrotation
            End Site
            {
              OFFSET 0.0001 17.6655 0.5274
            }
          }
        }
        JOINT LeftCollar
        {
          OFFSET 2.2603 21.606 7.4023
          CHANNELS 6 Xposition Yposition Zposition Zrotation Xrotation Yrotation
          JOINT LeftShoulder
          {
            OFFSET 13.5163 -1.1332 -5.0146
            CHANNELS 6 Xposition Yposition Zposition Zrotation Xrotation Yrotation
            JOINT LeftElbow
            {
              OFFSET -0.0995 -28.05 -0.2431
              CHANNELS 6 Xposition Yposition Zposition Zrotation Xrotation Yrotation
              JOINT LeftWrist
              {
                OFFSET 0.0679 -23.3996 -0.1402
                CHANNELS 6 Xposition Yposition Zposition Zrotation Xrotation Yrotation
                JOINT LeftFinger1
                {
                  OFFSET 0.7932 -9.069 2.5189
                  CHANNELS 6 Xposition Yposition Zposition Zrotation Xrotation Yrotation
                  JOINT LeftFinger11
                  {
                    OFFSET -0.8272 -3.3923 0.5977
                    CHANNELS 6 Xposition Yposition Zposition Zrotation Xrotation Yrotation
                    JOINT LeftFinger12
                    {
                      OFFSET -0.5649 -2.3158 0.4082
                      CHANNELS 6 Xposition Yposition Zposition Zrotation Xrotation Yrotation
                      End Site
                      {
                        OFFSET -0.4919 -1.6479 0.2673
                      }
                    }
                  }
                }
                JOINT LeftFinger2
                {
                  OFFSET 0.9159 -9.2044 0.2193
                  CHANNELS 6 Xposition Yposition Zposition Zrotation Xrotation Yrotation
                  JOINT LeftFinger21
                  {
                    OFFSET 0.0117 -4.1944 -0.0248
                    CHANNELS 6 Xposition Yposition Zposition Zrotation Xrotation Yrotation
                    JOINT LeftFinger22
                    {
                      OFFSET 0.0071 -2.3249 -0.0142
                      CHANNELS 6 Xposition Yposition Zposition Zrotation Xrotation Yrotation
                      End Site
                      {
                        OFFSET -0.1475 -2.0882 0.0028
                      }
                    }
                  }
                }
                JOINT LeftFinger3
                {
                  OFFSET 0.6113 -8.7231 -2.0637
                  CHANNELS 6 Xposition Yposition Zposition Zrotation Xrotation Yrotation
                  JOINT LeftFinger31
                  {
                    OFFSET -0.1927 -3.8059 -0.2383
                    CHANNELS 6 Xposition Yposition Zposition Zrotation Xrotation Yrotation
                    JOINT LeftFinger32
                    {
                      OFFSET -0.1091 -2.1688 -0.1362
                      CHANNELS 6 Xposition Yposition Zposition Zrotation Xrotation Yrotation
                      End Site
                      {
                        OFFSET -0.2358 -1.9176 -0.0906
                      }
                    }
                  }
                }
                JOINT LeftFinger4
                {
                  OFFSET -0.6151 -8.0947 -3.5641
                  CHANNELS 6 Xposition Yposition Zposition Zrotation Xrotation Yrotation
                  JOINT LeftFinger41
                  {
                    OFFSET -0.4882 -2.341 -0.6462
                    CHANNELS 6 Xposition Yposition Zposition Zrotation Xrotation Yrotation
                    JOINT LeftFinger42
                    {
                      OFFSET -0.3575 -1.7167 -0.4742
                      CHANNELS 6 Xposition Yposition Zposition Zrotation Xrotation Yrotation
                      End Site
                      {
                        OFFSET -0.4187 -1.5237 -0.3496
                      }
                    }
                  }
                }
                JOINT LeftFinger0
                {
                  OFFSET -1.42 -1.8761 1.4223
                  CHANNELS 6 Xposition Yposition Zposition Zrotation Xrotation Yrotation
                  JOINT LeftFinger01
                  {
                    OFFSET -1.1471 -3.4929 2.6334
                    CHANNELS 6 Xposition Yposition Zposition Zrotation Xrotation Yrotation
                    JOINT LeftFinger02
                    {
                      OFFSET -0.823 -2.3 1.6571
                      CHANNELS 6 Xposition Yposition Zposition Zrotation Xrotation Yrotation
                      End Site
                      {
                        OFFSET -0.5822 -1.6914 1.1582
                      }
                    }
                  }
                }
              }
            }
          }
        }
        JOINT RightCollar
        {
          OFFSET -2.2603 21.606 7.4023
          CHANNELS 6 Xposition Yposition Zposition Zrotation Xrotation Yrotation
          JOINT RightShoulder
          {
            OFFSET -13.5187 -1.1334 -5.0155
            CHANNELS 6 Xposition Yposition Zposition Zrotation Xrotation Yrotation
            JOINT RightElbow
            {
              OFFSET 0.0994 -28.0499 -0.2431
              CHANNELS 6 Xposition Yposition Zposition Zrotation Xrotation Yrotation
              JOINT RightWrist
              {
                OFFSET -0.0679 -23.3996 -0.1402
                CHANNELS 6 Xposition Yposition Zposition Zrotation Xrotation Yrotation
                JOINT RightFinger1
                {
                  OFFSET -0.7932 -9.0691 2.5189
                  CHANNELS 6 Xposition Yposition Zposition Zrotation Xrotation Yrotation
                  JOINT RightFinger11
                  {
                    OFFSET 0.8272 -3.3923 0.5977
                    CHANNELS 6 Xposition Yposition Zposition Zrotation Xrotation Yrotation
                    JOINT RightFinger12
                    {
                      OFFSET 0.565 -2.3158 0.4082
                      CHANNELS 6 Xposition Yposition Zposition Zrotation Xrotation Yrotation
                      End Site
                      {
                        OFFSET 0.4919 -1.6479 0.2673
                      }
                    }
                  }
                }
                JOINT RightFinger2
                {
                  OFFSET -0.916 -9.2044 0.2193
                  CHANNELS 6 Xposition Yposition Zposition Zrotation Xrotation Yrotation
                  JOINT RightFinger21
                  {
                    OFFSET -0.0117 -4.1944 -0.0248
                    CHANNELS 6 Xposition Yposition Zposition Zrotation Xrotation Yrotation
                    JOINT RightFinger22
                    {
                      OFFSET -0.0071 -2.3249 -0.0142
                      CHANNELS 6 Xposition Yposition Zposition Zrotation Xrotation Yrotation
                      End Site
                      {
                        OFFSET 0.1475 -2.0882 0.0028
                      }
                    }
                  }
                }
                JOINT RightFinger3
                {
                  OFFSET -0.6113 -8.7231 -2.0637
                  CHANNELS 6 Xposition Yposition Zposition Zrotation Xrotation Yrotation
                  JOINT RightFinger31
                  {
                    OFFSET 0.1927 -3.8059 -0.2383
                    CHANNELS 6 Xposition Yposition Zposition Zrotation Xrotation Yrotation
                    JOINT RightFinger32
                    {
                      OFFSET 0.1091 -2.1688 -0.1362
                      CHANNELS 6 Xposition Yposition Zposition Zrotation Xrotation Yrotation
                      End Site
                      {
                        OFFSET 0.2358 -1.9176 -0.0906
                      }
                    }
                  }
                }
                JOINT RightFinger4
                {
                  OFFSET 0.6151 -8.0947 -3.564
                  CHANNELS 6 Xposition Yposition Zposition Zrotation Xrotation Yrotation
                  JOINT RightFinger41
                  {
                    OFFSET 0.4882 -2.341 -0.6462
                    CHANNELS 6 Xposition Yposition Zposition Zrotation Xrotation Yrotation
                    JOINT RightFinger42
                    {
                      OFFSET 0.3574 -1.7166 -0.4742
                      CHANNELS 6 Xposition Yposition Zposition Zrotation Xrotation Yrotation
                      End Site
                      {
                        OFFSET 0.4187 -1.5237 -0.3496
                      }
                    }
                  }
                }
                JOINT RightFinger0
                {
                  OFFSET 1.4199 -1.8761 1.4221
                  CHANNELS 6 Xposition Yposition Zposition Zrotation Xrotation Yrotation
                  JOINT RightFinger01
                  {
                    OFFSET 1.1472 -3.4929 2.6336
                    CHANNELS 6 Xposition Yposition Zposition Zrotation Xrotation Yrotation
                    JOINT RightFinger02
                    {
                      OFFSET 0.8229 -2.3 1.6571
                      CHANNELS 6 Xposition Yposition Zposition Zrotation Xrotation Yrotation
                      End Site
                      {
                        OFFSET 0.5822 -1.6914 1.1582
                      }
                    }
                  }
                }
              }
            }
          }
        }
      }
    }
  }
  JOINT RightHip
  {
    OFFSET -9.412 3.9771 -0.7758
    CHANNELS 6 Xposition Yposition Zposition Zrotation Xrotation Yrotation
    JOINT RightKnee
    {
      OFFSET -0.7531 -40.938 0
      CHANNELS 6 Xposition Yposition Zposition Zrotation Xrotation Yrotation
      JOINT RightAnkle
      {
        OFFSET 0 -40.1986 0
        CHANNELS 6 Xposition Yposition Zposition Zrotation Xrotation Yrotation
        JOINT RightToe
        {
          OFFSET 0 -4.4182 9.239
          CHANNELS 6 Xposition Yposition Zposition Zrotation Xrotation Yrotation
          End Site
          {
            OFFSET 0 0 6.1981
          }
        }
      }
    }
  }
  JOINT LeftHip
  {
    OFFSET 9.4119 3.9773 -0.7758
    CHANNELS 6 Xposition Yposition Zposition Zrotation Xrotation Yrotation
    JOINT LeftKnee
    {
      OFFSET 0.7532 -40.9383 0
      CHANNELS 6 Xposition Yposition Zposition Zrotation Xrotation Yrotation
      JOINT LeftAnkle
      {
        OFFSET 0 -40.1986 0
        CHANNELS 6 Xposition Yposition Zposition Zrotation Xrotation Yrotation
        JOINT LeftToe
        {
          OFFSET 0 -4.4182 9.239
          CHANNELS 6 Xposition Yposition Zposition Zrotation Xrotation Yrotation
          End Site
          {
            OFFSET 0 0 6.1981
          }
        }
      }
    }
  }
}
MOTION
Frames:	4
Frame Time:	0.0333333
0.485236 19.7928 42.4156 -7.60612e-015 -4.80162 180 5.55112e-017 8.7983 -4.7612 1.95064 4.17197 -0.522322 5.55112e-017 8.0291 0.4195 3.95517 8.32346 -1.1919 -2.22045e-016 9.9351 -2.2114 3.95518 8.32349 -1.19191 4.44089e-016 22.3885 -0.4656 -27.0092 41.7321 19.0762 -0.0001 12.643 3.4389 -2.03181e-006 -45.0035 6.39276e-007 2.2603 21.606 7.4023 -9.62232 -28.5592 10.3949 13.5163 -1.1332 -5.0146 26.535 -28.9591 12.9295 -0.0995 -28.05 -0.2431 -145.339 -66.5726 171.164 0.0679 -23.3996 -0.1402 -2.39604 -10.8965 15.6571 0.7932 -9.06901 2.5189 -7.00067e-006 -5.17023e-006 -2.47891e-006 -0.8272 -3.3923 0.5977 -6.36111e-015 -1.27222e-014 -0 -0.5649 -2.3158 0.4082 -0 -1.27222e-014 -0 0.9159 -9.20441 0.2193 -7.00067e-006 -5.17023e-006 -2.47891e-006 0.0117 -4.1944 -0.0248 -0.01274 0.00231214 8.96401e-005 0.0071 -2.3249 -0.0142 1.06926e-006 -1.27368e-006 -1.10651e-006 0.6113 -8.7231 -2.0637 -7.00067e-006 -5.17023e-006 -2.47891e-006 -0.1927 -3.8059 -0.2383 -0.0160871 0.00300277 0.000859356 -0.1091 -2.1688 -0.1362 2.88168e-006 -2.72698e-006 -6.97486e-006 -0.6151 -8.0947 -3.5641 -7.00067e-006 -5.17023e-006 -2.47891e-006 -0.4882 -2.341 -0.6462 -0.0125804 0.00312439 0.00281959 -0.3575 -1.7167 -0.4742 9.54166e-015 -6.36111e-015 -0 -1.42 -1.8761 1.4223 -7.00067e-006 -5.17023e-006 -2.47891e-006 -1.1471 -3.4929 2.6334 -6.36111e-015 -1.27222e-014 -0 -0.823 -2.3 1.6571 -0 -1.27222e-014 -0 -2.2603 21.606 7.4023 18.5313 -61.3604 -24.9904 -13.5187 -1.1334 -5.0155 -76.452 31.7287 12.0642 0.0994 -28.0499 -0.2431 40.987 6.79045 39.5926 -0.0679 -23.3996 -0.1402 28.2282 -47.1174 -27.9005 -0.7932 -9.0691 2.5189 -2.35594e-006 6.01448e-006 -3.48132e-006 0.8272 -3.3923 0.5977 -0 0 3.18055e-015 0.565 -2.3158 0.4082 8.82781e-032 -3.18055e-015 1.59028e-015 -0.916 -9.2044 0.2193 -2.35594e-006 6.01448e-006 -3.48132e-006 -0.0117 -4.1944 -0.0248 0.0129688 0.00231574 -9.51578e-005 -0.0071 -2.3249 -0.0142 -4.06948e-006 3.31652e-006 6.23426e-006 -0.6113 -8.7231 -2.0637 -2.35594e-006 6.01448e-006 -3.48132e-006 0.1927 -3.8059 -0.2383 0.0163117 0.00302633 -0.000871483 0.1091 -2.1688 -0.1362 1.51723e-006 8.74627e-006 4.29258e-006 0.6151 -8.0947 -3.564 -2.35594e-006 6.01448e-006 -3.48132e-006 0.4882 -2.341 -0.6462 0.0145838 0.00367671 -0.00326048 0.3574 -1.7166 -0.4742 1.29082e-007 3.19357e-006 -2.428e-006 1.4199 -1.8761 1.4221 -2.35594e-006 6.01448e-006 -3.48132e-006 1.1472 -3.4929 2.6336 -0 0 3.18055e-015 0.8229 -2.3 1.6571 8.82781e-032 -3.18055e-015 1.59028e-015 -9.412 3.9771 -0.7758 -2.51062 -7.65058 -3.87533 -0.7531 -40.938 7.10543e-015 -159.142 76.1278 155.633 0 -40.1986 0 -8.71208 51.1808 -3.4306 1.77636e-015 -4.4182 9.239 7.95139e-016 2.42088e-009 -1.59028e-015 9.4119 3.9773 -0.7758 4.42849 -9.54642 3.91153 0.7532 -40.9383 0 157.606 77.0834 -155.057 0 -40.1986 -3.55271e-015 10.2687 50.6829 2.3061 -1.77636e-015 -4.4182 9.239 2.38542e-015 -1.27222e-014 3.18055e-015 
0.48524 19.6991 42.3036 -7.57543e-015 -4.55266 180 0 8.7983 -4.7612 1.95087 4.38266 -0.540433 -1.11022e-016 8.0291 0.4195 3.96065 8.74405 -1.23612 -6.66134e-016 9.9351 -2.2114 3.96066 8.74409 -1.23612 -4.44089e-016 22.3885 -0.4656 -26.4667 40.4956 18.2504 -0.0001 12.643 3.4389 -2.2069e-006 -45.0035 -2.25146e-006 2.2603 21.606 7.4023 -8.98577 -29.4733 11.0108 13.5163 -1.1332 -5.0146 26.5352 -28.9591 12.9296 -0.0995 -28.05 -0.2431 -145.802 -66.2356 170.761 0.0679 -23.3996 -0.1402 -2.41439 -10.379 16.1935 0.7932 -9.069 2.5189 3.18055e-015 0 -3.18055e-015 -0.8272 -3.3923 0.5977 -3.18055e-015 3.18055e-015 -0 -0.5649 -2.3158 0.4082 3.18055e-015 -3.18055e-015 -6.36111e-015 0.9159 -9.2044 0.2193 3.18055e-015 0 -3.18055e-015 0.0117 -4.1944 -0.0248 -0.0127698 0.00231485 9.34344e-005 0.0071 -2.3249 -0.0142 9.54166e-015 6.36111e-015 3.18055e-015 0.6113 -8.7231 -2.0637 3.18055e-015 0 -3.18055e-015 -0.1927 -3.8059 -0.2383 -0.0159713 0.00298122 0.000850616 -0.1091 -2.1688 -0.1362 9.54166e-015 -3.18055e-015 6.36111e-015 -0.6151 -8.0947 -3.5641 3.18055e-015 0 -3.18055e-015 -0.4882 -2.341 -0.6462 -0.0126358 0.00312785 0.00283194 -0.3575 -1.7167 -0.4742 -6.36111e-015 -9.54166e-015 3.18055e-015 -1.42 -1.8761 1.4223 3.18055e-015 0 -3.18055e-015 -1.1471 -3.4929 2.6334 -3.18055e-015 3.18055e-015 -0 -0.823 -2.3 1.6571 3.18055e-015 -3.18055e-015 -6.36111e-015 -2.2603 21.606 7.4023 19.4077 -61.6162 -23.9485 -13.5187 -1.1334 -5.0155 -75.669 31.3962 11.696 0.0994 -28.0499 -0.2431 40.987 6.79044 39.5927 -0.0679 -23.3996 -0.1402 25.9157 -47.0027 -29.6102 -0.7932 -9.06911 2.5189 7.09354e-006 -4.99568e-006 -1.84418e-005 0.8272 -3.3923 0.5977 -3.18055e-015 1.11319e-014 -1.27222e-014 0.565 -2.3158 0.4082 5.80052e-022 2.61232e-006 -1.27222e-014 -0.916 -9.20441 0.2193 7.09354e-006 -4.99568e-006 -1.84418e-005 -0.0117 -4.1944 -0.0248 0.012934 0.00232115 -7.43343e-005 -0.0071 -2.3249 -0.0142 -3.02106e-006 -2.77047e-006 -8.58454e-006 -0.6113 -8.72311 -2.0637 7.09354e-006 -4.99568e-006 -1.84418e-005 0.1927 -3.8059 -0.2383 0.0163181 0.00303241 -0.000871989 0.1091 -2.1688 -0.1362 3.75038e-007 1.23993e-006 -1.07766e-005 0.6151 -8.09471 -3.564 7.09354e-006 -4.99568e-006 -1.84418e-005 0.4882 -2.341 -0.6462 0.0145721 0.00369398 -0.00324906 0.3574 -1.7166 -0.4742 -2.4533e-006 4.8778e-006 -1.05004e-006 1.4199 -1.8761 1.4221 7.09354e-006 -4.99568e-006 -1.84418e-005 1.1472 -3.4929 2.6336 -3.18055e-015 1.11319e-014 -1.27222e-014 0.8229 -2.3 1.6571 5.80052e-022 2.61232e-006 -1.27222e-014 -9.412 3.9771 -0.7758 -2.52151 -7.25501 -3.86885 -0.7531 -40.938 7.10543e-015 -159.137 76.1307 155.628 1.77636e-015 -40.1986 0 -8.7123 51.1818 -3.43035 -1.77636e-015 -4.4182 9.239 8.01162e-007 -2.88272e-006 1.45461e-006 9.4119 3.9773 -0.7758 4.44508 -9.16093 3.9027 0.7532 -40.9383 0 157.607 77.083 -155.058 0 -40.1986 0 10.2689 50.684 2.30584 0 -4.4182 9.239 7.30197e-007 7.01585e-006 -4.32457e-007 
0.485244 19.6155 42.2036 -7.54808e-015 -4.33069 180 0 8.7983 -4.7612 1.95102 4.57114 -0.556623 -2.22045e-016 8.0291 0.4195 3.96561 9.12032 -1.27571 2.22045e-016 9.9351 -2.2114 3.96563 9.12035 -1.27572 4.44089e-016 22.3885 -0.4656 -26.0079 39.3837 17.5357 -0.0001 12.643 3.4389 -1.20734e-006 -45.0035 -3.93446e-006 2.2603 21.606 7.4023 -8.4022 -30.2862 11.5766 13.5163 -1.1332 -5.0146 26.5353 -28.9591 12.9297 -0.0995 -28.05 -0.2431 -146.205 -65.9335 170.411 0.0679 -23.3996 -0.1402 -2.4353 -9.91665 16.6724 0.7932 -9.069 2.5189 -3.78237e-006 -7.62433e-007 -5.79372e-006 -0.8272 -3.3923 0.5977 1.5118e-006 7.54403e-007 5.27715e-006 -0.5649 -2.3158 0.4082 -3.18055e-015 3.18055e-015 -3.18055e-015 0.9159 -9.2044 0.2193 -3.78237e-006 -7.62433e-007 -5.79372e-006 0.0117 -4.1944 -0.0248 -0.0128566 0.00233379 8.86658e-005 0.0071 -2.3249 -0.0142 6.36111e-015 3.18055e-015 3.18055e-015 0.6113 -8.7231 -2.0637 -3.78237e-006 -7.62433e-007 -5.79372e-006 -0.1927 -3.8059 -0.2383 -0.0159748 0.00298124 0.000851915 -0.1091 -2.1688 -0.1362 -3.18055e-015 6.36111e-015 -0 -0.6151 -8.0947 -3.5641 -3.78237e-006 -7.62433e-007 -5.79372e-006 -0.4882 -2.341 -0.6462 -0.0125908 0.00312666 0.00282564 -0.3575 -1.7167 -0.4742 1.21613e-005 4.99686e-006 1.0847e-005 -1.42 -1.8761 1.4223 -3.78237e-006 -7.62433e-007 -5.79372e-006 -1.1471 -3.4929 2.6334 1.5118e-006 7.54403e-007 5.27715e-006 -0.823 -2.3 1.6571 -3.18055e-015 3.18055e-015 -3.18055e-015 -2.2603 21.606 7.4023 20.2051 -61.8385 -23.0033 -13.5187 -1.1334 -5.0155 -74.9738 31.0952 11.3728 0.0994 -28.0499 -0.2431 40.9871 6.79047 39.5927 -0.0679 -23.3996 -0.1402 23.8565 -46.8602 -31.1296 -0.7932 -9.06911 2.5189 -1.90833e-014 -2.54444e-014 -1.59028e-015 0.8272 -3.3923 0.5977 -1.59028e-014 -1.59028e-014 -1.59028e-015 0.565 -2.3158 0.4082 -9.54166e-015 -1.90833e-014 -1.59028e-015 -0.916 -9.2044 0.2193 -1.90833e-014 -2.54444e-014 -1.59028e-015 -0.0117 -4.1944 -0.0248 0.0129671 0.00231709 -8.61552e-005 -0.0071 -2.3249 -0.0142 -9.54166e-015 -4.77083e-015 -0 -0.6113 -8.7231 -2.0637 -1.90833e-014 -2.54444e-014 -1.59028e-015 0.1927 -3.8059 -0.2383 0.0163608 0.00304395 -0.000866478 0.1091 -2.1688 -0.1362 -6.36111e-015 1.59028e-015 -1.59028e-015 0.6151 -8.0947 -3.564 -1.90833e-014 -2.54444e-014 -1.59028e-015 0.4882 -2.341 -0.6462 0.0145747 0.00366729 -0.0032642 0.3574 -1.7166 -0.4742 -3.18055e-015 -1.59028e-015 4.77083e-015 1.4199 -1.8761 1.4221 -1.90833e-014 -2.54444e-014 -1.59028e-015 1.1472 -3.4929 2.6336 -1.59028e-014 -1.59028e-014 -1.59028e-015 0.8229 -2.3 1.6571 -9.54166e-015 -1.90833e-014 -1.59028e-015 -9.412 3.9771 -0.7758 -2.53107 -6.9066 -3.86292 -0.7531 -40.938 0 -159.14 76.1287 155.631 0 -40.1986 0 -8.71249 51.1827 -3.43013 0 -4.4182 9.239 4.32256e-008 -2.84036e-008 1.84775e-006 9.4119 3.9773 -0.7758 4.46001 -8.81551 3.89475 0.7532 -40.9383 0 157.606 77.0836 -155.057 0 -40.1986 3.55271e-015 10.2691 50.6851 2.30558 -1.77636e-015 -4.4182 9.239 -6.63501e-007 2.50711e-006 -3.45662e-006 
0.485249 19.5321 42.1037 -7.52074e-015 -4.10864 180 0 8.7983 -4.7612 1.95113 4.75982 -0.572821 0 8.0291 0.4195 3.97069 9.49698 -1.3154 2.22045e-016 9.9351 -2.2114 3.9707 9.49701 -1.3154 2.22045e-015 22.3885 -0.4656 -25.573 38.2655 16.8422 -0.0001 12.643 3.4389 -9.2975e-007 -45.0035 8.66338e-007 2.2603 21.606 7.4023 -7.80359 -31.0949 12.1575 13.5163 -1.1332 -5.0146 26.5352 -28.9591 12.9296 -0.0995 -28.05 -0.2431 -146.598 -65.6304 170.07 0.0679 -23.3996 -0.1402 -2.46009 -9.45421 17.1511 0.7932 -9.069 2.5189 1.17183e-005 4.46836e-006 4.4801e-006 -0.8272 -3.3923 0.5977 -1.17183e-005 -4.46836e-006 -4.4801e-006 -0.5649 -2.3158 0.4082 1.17183e-005 4.46836e-006 4.4801e-006 0.9159 -9.2044 0.2193 1.17183e-005 4.46836e-006 4.4801e-006 0.0117 -4.1944 -0.0248 -0.0128117 0.00231622 7.16939e-005 0.0071 -2.3249 -0.0142 3.18055e-015 -9.54166e-015 -0 0.6113 -8.7231 -2.0637 1.17183e-005 4.46836e-006 4.4801e-006 -0.1927 -3.8059 -0.2383 -0.0160896 0.00300287 0.000863038 -0.1091 -2.1688 -0.1362 -1.27222e-014 -6.36111e-015 -6.36111e-015 -0.6151 -8.0947 -3.5641 1.17183e-005 4.46836e-006 4.4801e-006 -0.4882 -2.341 -0.6462 -0.0125765 0.00311897 0.00281448 -0.3575 -1.7167 -0.4742 6.36111e-015 -3.18055e-015 9.54166e-015 -1.42 -1.8761 1.4223 1.17183e-005 4.46836e-006 4.4801e-006 -1.1471 -3.4929 2.6334 -1.17183e-005 -4.46836e-006 -4.4801e-006 -0.823 -2.3 1.6571 1.17183e-005 4.46836e-006 4.4801e-006 -2.2603 21.606 7.4023 21.0161 -62.0544 -22.0446 -13.5187 -1.1334 -5.0155 -74.2823 30.7907 11.0547 0.0994 -28.0499 -0.2431 40.9871 6.79044 39.5927 -0.0679 -23.3996 -0.1402 21.8075 -46.6803 -32.6376 -0.7932 -9.0691 2.5189 8.8766e-006 4.98322e-006 -1.6748e-005 0.8272 -3.3923 0.5977 -1.25798e-005 3.36202e-006 2.30745e-006 0.565 -2.3158 0.4082 2.23256e-006 -3.63742e-007 -8.11649e-006 -0.916 -9.2044 0.2193 8.8766e-006 4.98322e-006 -1.6748e-005 -0.0117 -4.1944 -0.0248 0.0129477 0.00231378 -8.72581e-005 -0.0071 -2.3249 -0.0142 -6.05994e-007 -1.39319e-006 -7.53788e-006 -0.6113 -8.7231 -2.0637 8.8766e-006 4.98322e-006 -1.6748e-005 0.1927 -3.8059 -0.2383 0.0163364 0.00303672 -0.00087954 0.1091 -2.1688 -0.1362 1.25555e-007 -5.82966e-007 8.6806e-007 0.6151 -8.0947 -3.564 8.8766e-006 4.98322e-006 -1.6748e-005 0.4882 -2.341 -0.6462 0.0145934 0.00368476 -0.00326126 0.3574 -1.7166 -0.4742 2.83929e-006 1.12753e-006 -5.78598e-007 1.4199 -1.8761 1.4221 8.8766e-006 4.98322e-006 -1.6748e-005 1.1472 -3.4929 2.6336 -1.25798e-005 3.36202e-006 2.30745e-006 0.8229 -2.3 1.6571 2.23256e-006 -3.63742e-007 -8.11649e-006 -9.412 3.9771 -0.7758 -2.54083 -6.55394 -3.85701 -0.7531 -40.938 7.10543e-015 -159.137 76.1306 155.628 1.77636e-015 -40.1986 3.55271e-015 -8.71271 51.1836 -3.42988 1.77636e-015 -4.4182 9.239 7.94357e-007 -7.22774e-006 1.45828e-006 9.4119 3.9773 -0.7758 4.47491 -8.47079 3.88671 0.7532 -40.9383 -7.10543e-015 157.606 77.0836 -155.057 0 -40.1986 0 10.2693 50.6861 2.30535 0 -4.4182 9.239 2.42505e-025 2.91239e-009 -4.77083e-015 
